<?xml version="1.0" standalone="no"?>
<!DOCTYPE svg PUBLIC "-//W3C//DTD SVG 20010904//EN"
 "http://www.w3.org/TR/2001/REC-SVG-20010904/DTD/svg10.dtd">
<svg version="1.0" xmlns="http://www.w3.org/2000/svg"
 width="300.000000pt" height="300.000000pt" viewBox="0 0 300.000000 300.000000"
 preserveAspectRatio="xMidYMid meet">

<g transform="translate(0.000000,300.000000) scale(0.100000,-0.100000)"
fill="#000000" stroke="none">
<path d="M694 2620 c-114 -17 -227 -98 -279 -200 -13 -26 -29 -76 -35 -111
-12 -80 -13 -1518 -1 -1606 13 -86 48 -159 106 -216 59 -60 124 -93 206 -107
80 -12 1518 -13 1606 -1 86 13 159 48 216 106 60 59 93 124 107 206 12 80 13
1518 1 1606 -13 86 -48 159 -106 216 -59 60 -124 93 -206 107 -74 11 -1534 12
-1615 0z m1619 -268 c60 -40 56 14 57 -847 0 -748 -1 -791 -18 -818 -40 -60
14 -56 -847 -57 -748 0 -791 1 -818 18 -60 40 -56 -14 -57 847 0 748 1 791 18
818 40 60 -14 56 847 57 748 0 791 -1 818 -18z"/>
<path d="M966 2119 c-94 -27 -121 -150 -46 -213 42 -35 82 -41 127 -19 50 25
76 63 76 112 0 83 -78 143 -157 120z"/>
<path d="M939 1735 c-14 -8 -35 -27 -45 -42 -18 -26 -19 -51 -19 -378 0 -318
2 -353 18 -378 53 -81 161 -81 214 0 16 25 18 60 18 378 0 327 -1 352 -19 378
-36 54 -111 72 -167 42z"/>
<path d="M1439 1735 c-14 -8 -35 -27 -45 -42 -18 -26 -19 -51 -19 -378 0 -318
2 -353 18 -378 53 -81 161 -81 214 0 16 23 18 57 21 253 3 220 4 226 28 257
47 61 131 65 185 7 24 -25 24 -30 29 -259 6 -262 8 -271 83 -308 63 -31 139 3
166 76 13 35 14 367 2 454 -34 234 -245 377 -468 319 -57 -15 -66 -15 -92 -1
-37 19 -88 19 -122 0z"/>
</g>
</svg>
